<?xml version="1.0" encoding="utf-8"?>
<!-- Generator: Adobe Illustrator 26.0.3, SVG Export Plug-In . SVG Version: 6.00 Build 0)  -->
<svg version="1.0" id="katman_1" xmlns="http://www.w3.org/2000/svg" xmlns:xlink="http://www.w3.org/1999/xlink" x="0px" y="0px"
	 viewBox="0 0 600 450" style="enable-background:new 0 0 600 450;" xml:space="preserve">
<style type="text/css">
	.st0{fill-rule:evenodd;clip-rule:evenodd;fill:url(#SVGID_1_);}
	.st1{fill:url(#SVGID_00000034789624437127509310000004001342398248416146_);}
	.st2{fill:url(#SVGID_00000146498423124587511430000017487800629315628220_);}
	.st3{fill:#010202;}
	.st4{fill-rule:evenodd;clip-rule:evenodd;fill:#010202;}
</style>
<linearGradient id="SVGID_1_" gradientUnits="userSpaceOnUse" x1="212.2148" y1="185.5992" x2="338.2962" y2="71.5742" gradientTransform="matrix(1 0 0 -1 -120.9449 379.3622)">
	<stop  offset="0" style="stop-color:#E63A8D"/>
	<stop  offset="1" style="stop-color:#EA5619"/>
</linearGradient>
<path class="st0" d="M141.8,188.7h29.6c9.6,0,17.4,8.4,17.4,18.8v59c0,10.4-7.8,18.8-17.4,18.8h-2.4c-0.3,2.6-2.5,4.6-5.1,4.6h-8
	c-2.6,0-4.8-2-5.1-4.6h-38.5c-0.3,2.6-2.5,4.6-5.1,4.6h-8c-2.6,0-4.8-2-5.1-4.6h-2.5c-9.6,0-17.4-8.4-17.4-18.8v-59
	c0-10.4,7.8-18.8,17.4-18.8h29.6L99.6,168c-1.1-1-1.6-2.5-1.2-4c0.3-1.4,1.4-2.6,2.9-3c1.4-0.4,3,0,4,1l26.3,25.1l26.3-25.1
	c1.6-1.5,4.2-1.4,5.7,0.2c1.5,1.6,1.5,4.2-0.1,5.7L141.8,188.7z M171.4,277.2c5,0,9.2-4.8,9.2-10.6v-59c0-5.9-4.1-10.6-9.2-10.6
	H91.7c-5,0-9.2,4.8-9.2,10.6v59c0,5.9,4.1,10.6,9.2,10.6H171.4z"/>
<linearGradient id="SVGID_00000036965596850155834860000011782301424306150837_" gradientUnits="userSpaceOnUse" x1="227.6064" y1="191.0738" x2="287.6402" y2="40.8947" gradientTransform="matrix(1 0 0 -1 -120.9449 379.3622)">
	<stop  offset="0" style="stop-color:#E63A8D"/>
	<stop  offset="1" style="stop-color:#EA5619"/>
</linearGradient>
<path style="fill:url(#SVGID_00000036965596850155834860000011782301424306150837_);" d="M165.3,252.4v-0.2c0-0.1,0-0.1,0-0.2
	c0-0.1,0-0.1,0-0.2c0-0.1,0-0.1,0-0.2c0-0.1,0-0.1,0-0.2s0-0.1,0-0.2c0-0.1,0-0.1,0-0.2c0-0.1,0-0.1,0-0.2c0-0.1,0-0.1,0-0.2
	c0-0.1,0-0.1,0-0.2v-0.2v-0.2V250v-0.2c0-0.1,0-0.2,0-0.2v-0.2c0-0.1,0-0.2,0-0.2V249c0-0.1,0-0.2,0-0.2c0-0.1,0-0.1,0-0.2
	c-0.2-0.1-0.4-0.1-0.5-0.2c0-0.1,0-0.1,0-0.2s0-0.2,0-0.3c0-0.1,0-0.1,0-0.2l-0.1-0.3c0-0.1,0-0.1,0-0.2c0-0.1,0-0.2-0.1-0.3
	c0-0.1,0-0.1,0-0.2c0-0.1,0-0.2-0.1-0.3l-0.1-0.2c0-0.1,0-0.2-0.1-0.3c0-0.1,0-0.1-0.1-0.2c0-0.1,0-0.2-0.1-0.3
	c-0.1-0.1,0-0.2-0.1-0.2c0-0.1-0.1-0.2-0.1-0.3c0-0.1,0-0.2-0.1-0.2c-0.1-0.1,0-0.2-0.1-0.3c0-0.1-0.1-0.2-0.1-0.3l-0.1-0.3
	l-0.1-0.3l-0.1-0.3l-0.1-0.3l-0.1-0.3c0-0.1-0.1-0.2-0.1-0.3l-0.1-0.3c0-0.1-0.1-0.2-0.1-0.3l-0.1-0.3c0-0.1-0.1-0.2-0.1-0.3
	l-0.1-0.2l-0.1-0.4l-0.1-0.2l-0.1-0.4c0-0.1,0-0.1-0.1-0.2l-0.2-0.6c-4.1-11.4-11.7-23.7-15.5-25.1c-0.2-0.1-0.3-0.1-0.5-0.1
	c-0.2,0-0.4,0-0.6,0.1c-3.4,1.2-9.7,11.1-14,21.3c-4.7-11.2-11.9-22.1-14.9-21.4c-3.5,0.5-11.3,13-15.7,24.6
	c-0.1,0.2-0.1,0.4-0.2,0.6l-0.2,0.6c0,0.1-0.1,0.1-0.1,0.2c0,0.1-0.1,0.3-0.1,0.4l-0.1,0.2c0,0.1-0.1,0.2-0.1,0.3l-0.1,0.2l-0.1,0.3
	c0,0.1-0.1,0.2-0.1,0.2l-0.1,0.3l-0.1,0.2c0,0.1-0.1,0.2-0.1,0.3c0,0.1,0,0.2-0.1,0.2c0,0.1-0.1,0.2-0.1,0.3c0,0.1-0.1,0.2-0.1,0.2
	l-0.1,0.3c0,0.1,0,0.1-0.1,0.2c0,0.1-0.1,0.2-0.1,0.3c0,0.1,0,0.1-0.1,0.2l-0.1,0.3l-0.1,0.2l-0.1,0.3l-0.1,0.2
	c0,0.1-0.1,0.2-0.1,0.3l-0.1,0.2c0,0.1,0,0.2-0.1,0.3c0,0.1,0,0.1,0,0.2c0,0.1,0,0.2-0.1,0.3c-0.1,0.1,0,0.1,0,0.2
	c0,0.1,0,0.2-0.1,0.3c-0.1,0.1,0,0.1,0,0.2c0,0.1,0,0.2-0.1,0.3v0.2c0,0.1,0,0.2-0.1,0.3c0,0.1,0,0.1,0,0.2l-0.1,0.3v0.1
	c0,0.1,0,0.2,0,0.3c0,0,0,0.1,0,0.1c0,0.1,0,0.2,0,0.3c0,0,0,0.1,0,0.1c0,0.1,0,0.2,0,0.3c0,0.1,0,0.1,0,0.1c0,0,0,0.2,0,0.3
	s0,0.1,0,0.1c0,0,0,0.2,0,0.3c0,0,0,0.1,0,0.1v0.3c0,0,0,0.1,0,0.1s0,0.2,0,0.3c0,0,0,0,0,0.1c0,0.1,0,0.2,0,0.3l0,0
	c0,0.1,0,0.2,0,0.4l0,0c0,0.5,0,0.9,0,1.3v0c0,0.1,0,0.2,0,0.3l0,0c0.2,3,1.4,4.8,3.1,5.4l0,0c3.6,1.3,8.3-2.6,12.9-15.2
	c1.2-3.5,2.3-7,3.1-10.6c0.7,3.6,1.6,7.1,2.7,10.6c3.6,9.9,7.3,14.4,10.5,15.3l0.3,0.1l0,0c0.2,0,0.5,0.1,0.7,0.1h0.5h0.1l0,0
	c0.1,0,0.1,0,0.2,0h0.2h0.1c3.2-0.8,6.9-5.3,10.5-15.3c1.2-3.4,2.2-6.8,3-10.3c0.8,3.5,1.8,6.9,3,10.3c4.6,12.5,9.3,16.5,12.9,15.2
	l0,0c1.8-0.6,2.9-2.4,3.1-5.4l0,0c0-0.1,0-0.2,0-0.3l0,0c0-0.3,0-0.6,0-1v-0.2C165.2,252.6,165.2,252.5,165.3,252.4z"/>
<linearGradient id="SVGID_00000161597653687428950510000001144268799460341654_" gradientUnits="userSpaceOnUse" x1="246.9035" y1="127.934" x2="260.8987" y2="111.8355" gradientTransform="matrix(1 0 0 -1 -120.9449 379.3622)">
	<stop  offset="0" style="stop-color:#E63A8D"/>
	<stop  offset="1" style="stop-color:#EA5619"/>
</linearGradient>
<path style="fill:url(#SVGID_00000161597653687428950510000001144268799460341654_);" d="M133,259.5L133,259.5L133,259.5L133,259.5
	L133,259.5L133,259.5L133,259.5z"/>
<path class="st3" d="M231.2,280.2c-9.9,0-18.9-2.2-25.6-5.8l1.8-12.5c6.1,4,14.8,7.6,24.2,7.6c9.6,0,16.7-4.8,16.7-13.4
	c0-8.1-3.8-11.4-17.8-17.4c-17.4-7.6-23.9-13.1-23.9-25.9c0-14.4,11.3-23.5,28-23.5c8.9,0,15.6,2.1,21,5l-2,12.3
	c-5.7-4.2-12.5-6.5-19.5-6.6c-10.5,0-15.3,5.4-15.3,11.9c0,6.7,3.5,9.9,17.7,16.2c17.8,7.9,24,13.7,24,27.1
	C260.4,270.5,248.5,280.2,231.2,280.2z"/>
<path class="st3" d="M290.9,280.3c-11.7,0-19.4-4.2-19.4-17.3v-39.1h-10.3v-10.2h10.3v-21.8l11.8-1.8v23.7h15l1.6,10.2h-16.6v37
	c0,5.4,2.5,8.7,9.6,8.7c2,0.1,4-0.1,6-0.5l1.6,10.3C297.3,280.1,294.1,280.4,290.9,280.3L290.9,280.3z"/>
<path class="st3" d="M352.6,279.2l-1.6-9.4c-6.6,5.8-14.7,10.8-24.2,10.8c-13.1,0-19.9-7.4-19.9-19.3v-47.6h12.1v44.6
	c0,6.9,3.2,11.4,10.8,11.4c6.9,0,13.7-4.3,20.1-10.7v-45.4h12.1v65.5H352.6z"/>
<path class="st4" d="M418.8,269.8l1.6,9.4h9.6v-99.1l-12,1.8v33.9c-5.5-2-11.4-3-17.3-2.9c-16.6,0-30.9,11.5-30.9,35.4
	c0,22,12.3,32.2,27,32.2C406.7,280.6,413.7,275.7,418.8,269.8z M401,223.1c7.2,0,11.5,1.1,16.9,3.7v31.6c-5.6,7-11.6,11.5-19.5,11.5
	c-9.4,0-16.4-7.6-16.4-22.1C382,231.5,390.1,223.1,401,223.1z"/>
<path class="st4" d="M443.1,198.2c1.5,1.4,3.5,2.2,5.5,2.2c2,0,4-0.7,5.5-2.2c1.5-1.4,2.3-3.4,2.3-5.4c0-4.3-3.5-7.7-7.7-7.7
	c-4.3,0-7.8,3.4-7.9,7.7C440.7,194.8,441.6,196.8,443.1,198.2z M442.5,213.8v65.5l12.1,0v-65.5H442.5z"/>
<path class="st4" d="M463.2,246.6c0,21.5,13.1,34,31.1,34s31.5-12.4,31.5-34s-13.4-34.2-31.5-34.2
	C476.4,212.4,463.2,225.2,463.2,246.6z M475.5,246.6c0-14,6.5-24.2,18.9-24.2c12.3,0,19.3,10.6,19.3,24.2c0,13.9-6.7,23.9-19.3,23.9
	C482.2,270.5,475.5,260.1,475.5,246.6z"/>
</svg>
